Jump_normalized_pl08_filtered_grf
version=1
nRows=27
nColumns=37
inDegrees=yes
endheader
time		1_ground_force_vx		1_ground_force_vy		1_ground_force_vz		1_ground_force_px		1_ground_force_py		1_ground_force_pz		1_ground_torque_x		1_ground_torque_y		1_ground_torque_z		2_ground_force_vx		2_ground_force_vy		2_ground_force_vz		2_ground_force_px		2_ground_force_py		2_ground_force_pz		2_ground_torque_x		2_ground_torque_y		2_ground_torque_z		3_ground_force_vx		3_ground_force_vy		3_ground_force_vz		3_ground_force_px		3_ground_force_py		3_ground_force_pz		3_ground_torque_x		3_ground_torque_y		3_ground_torque_z		4_ground_force_vx		4_ground_force_vy		4_ground_force_vz		4_ground_force_px		4_ground_force_py		4_ground_force_pz		4_ground_torque_x		4_ground_torque_y		4_ground_torque_z		
0.164500		-0.000000		0.000000		0.000000		0.144966		0.000000		0.187903		0.000000		0.000000		-0.000000		-0.000000		-0.000000		0.000000		-0.143518		0.000000		0.238076		-0.000000		0.000000		-0.000000		13.877521		140.543745		225.074624		0.374120		1.309494		1.919253		-0.631199		-6.392430		-10.237196		-33.985943		281.499213		474.684610		-0.265736		1.309379		1.929971		-1.677938		13.898044		23.435901		
0.166924		0.000000		0.000000		0.000000		0.144966		0.000000		0.187903		0.000000		0.000000		-0.000000		-0.000000		-0.000000		-0.000000		-0.143518		0.000000		0.238076		-0.000000		0.000000		-0.000000		14.612430		131.639882		210.383587		0.374125		1.309540		1.919278		-0.668852		-6.025500		-9.629805		-34.420384		272.800265		473.196879		-0.265714		1.309416		1.929883		-1.712041		13.568827		23.536393		
0.169348		0.000000		-0.000000		-0.000000		0.144966		0.000000		0.187903		-0.000000		-0.000000		0.000000		-0.000000		-0.000000		-0.000000		-0.143518		0.000000		0.238076		-0.000000		0.000000		-0.000000		15.116455		122.618734		195.734160		0.374145		1.309579		1.919275		-0.696278		-5.647902		-9.015648		-34.805869		264.070929		471.663782		-0.265690		1.309450		1.929778		-1.743844		13.230447		23.631284		
0.171773		0.000000		-0.000000		-0.000000		0.144966		0.000000		0.187903		-0.000000		-0.000000		0.000000		-0.000000		-0.000000		-0.000000		-0.143518		0.000000		0.238076		-0.000000		0.000000		-0.000000		15.407792		113.435742		181.147675		0.374184		1.309611		1.919244		-0.713812		-5.255219		-8.392158		-35.122513		255.315976		469.968441		-0.265663		1.309481		1.929658		-1.772322		12.883497		23.715127		
0.174197		0.000000		-0.000000		-0.000000		0.144966		0.000000		0.187903		-0.000000		-0.000000		0.000000		-0.000000		-0.000000		-0.000000		-0.143518		0.000000		0.238076		-0.000000		0.000000		-0.000000		15.544997		103.995772		166.575939		0.374236		1.309638		1.919193		-0.723771		-4.841989		-7.755691		-35.350235		246.539611		467.980615		-0.265639		1.309512		1.929528		-1.796374		12.528238		23.781107		
0.176621		0.000000		-0.000000		-0.000000		0.144966		0.000000		0.187903		-0.000000		-0.000000		0.000000		0.000000		-0.000000		-0.000000		-0.143518		0.000000		0.238076		-0.000000		0.000000		-0.000000		15.612067		94.166697		151.911262		0.374299		1.309663		1.919129		-0.729838		-4.402121		-7.101576		-35.476756		237.747061		465.573623		-0.265617		1.309546		1.929394		-1.815199		12.164505		23.821459		
0.179045		0.000000		-0.000000		-0.000000		0.144966		0.000000		0.187903		-0.000000		-0.000000		0.000000		0.000000		-0.000000		-0.000000		-0.143518		0.000000		0.238076		-0.000000		0.000000		-0.000000		15.697851		83.824572		137.013835		0.374367		1.309688		1.919057		-0.736050		-3.930407		-6.424373		-35.502269		228.946052		462.640344		-0.265600		1.309583		1.929257		-1.828531		11.791769		23.828110		
0.181470		0.000000		-0.000000		-0.000000		0.144966		0.000000		0.187903		-0.000000		-0.000000		0.000000		0.000000		0.000000		-0.000000		-0.143518		0.000000		0.238076		0.000000		-0.000000		0.000000		15.877281		72.921154		121.756976		0.374434		1.309714		1.918981		-0.745727		-3.424972		-5.718700		-35.438512		220.148333		459.103088		-0.265590		1.309624		1.929121		-1.836630		11.409366		23.793402		
0.183894		-0.000000		-0.000000		0.000000		0.144966		0.000000		0.187903		-0.000000		0.000000		0.000000		0.000000		0.000000		0.000000		-0.143518		0.000000		0.238076		0.000000		-0.000000		0.000000		16.198465		61.556575		106.090257		0.374496		1.309740		1.918904		-0.760564		-2.890263		-4.981250		-35.303311		211.371681		454.920286		-0.265587		1.309674		1.928982		-1.840059		11.016977		23.711087		
0.186318		-0.000000		0.000000		0.000000		0.144966		0.000000		0.187903		0.000000		0.000000		-0.000000		0.000000		0.000000		0.000000		-0.143518		0.000000		0.238076		0.000000		-0.000000		0.000000		16.677229		50.016829		90.103740		0.374549		1.309766		1.918827		-0.779844		-2.338879		-4.213402		-35.112895		202.641775		450.085337		-0.265591		1.309727		1.928841		-1.839354		10.615170		23.577266		
0.188742		-0.000000		0.000000		0.000000		0.144966		0.000000		0.187903		0.000000		0.000000		-0.000000		0.000000		0.000000		0.000000		-0.143518		0.000000		0.238076		0.000000		-0.000000		0.000000		17.300996		38.748877		74.061641		0.374591		1.309790		1.918746		-0.799524		-1.790795		-3.422745		-34.874929		193.994048		444.609870		-0.265602		1.309782		1.928692		-1.834715		10.205703		23.390214		
0.191167		-0.000000		0.000000		0.000000		0.144966		0.000000		0.187903		0.000000		0.000000		-0.000000		-0.000000		0.000000		0.000000		-0.143518		0.000000		0.238076		0.000000		-0.000000		0.000000		18.035023		28.286799		58.399684		0.374620		1.309814		1.918660		-0.810086		-1.270772		-2.623488		-34.584395		185.474600		438.514077		-0.265620		1.309836		1.928533		-1.825806		9.791710		23.150375		
0.193591		-0.000000		0.000000		0.000000		0.144966		0.000000		0.187903		0.000000		0.000000		-0.000000		-0.000000		0.000000		0.000000		-0.143518		0.000000		0.238076		0.000000		-0.000000		0.000000		18.830188		19.142834		43.670953		0.374635		1.309838		1.918571		-0.791556		-0.804948		-1.836212		-34.222918		177.140684		431.817207		-0.265642		1.309882		1.928358		-1.811707		9.377545		22.859724		
0.196015		-0.000000		0.000000		0.000000		0.144966		0.000000		0.187903		0.000000		0.000000		-0.000000		-0.000000		0.000000		0.000000		-0.143518		0.000000		0.238076		0.000000		-0.000000		0.000000		19.630057		11.702570		30.452448		0.374639		1.309867		1.918476		-0.705675		-0.420768		-1.094874		-33.762107		169.060819		424.532384		-0.265667		1.309919		1.928167		-1.791025		8.968397		22.520744		
0.198439		-0.000000		0.000000		0.000000		0.144966		0.000000		0.187903		0.000000		0.000000		-0.000000		-0.000000		-0.000000		-0.000000		-0.143518		0.000000		0.238076		-0.000000		0.000000		-0.000000		20.376950		6.164505		19.250346		0.374633		1.309904		1.918381		-0.506960		-0.153660		-0.479579		-33.168601		161.315875		416.661508		-0.265694		1.309943		1.927959		-1.762074		8.569866		22.135042		
0.200864		0.000000		-0.000000		-0.000000		0.144966		0.000000		0.187903		-0.000000		-0.000000		0.000000		-0.000000		-0.000000		-0.000000		-0.143518		0.000000		0.238076		-0.000000		0.000000		-0.000000		21.020064		2.489313		10.377268		0.374619		1.309954		1.918285		-0.244451		-0.029244		-0.121486		-32.412644		153.991164		408.201262		-0.265722		1.309953		1.927739		-1.723297		8.187312		21.703008		
0.203288		0.000000		-0.000000		-0.000000		0.144966		0.000000		0.187903		-0.000000		-0.000000		0.000000		-0.000000		-0.000000		-0.000000		-0.143518		0.000000		0.238076		-0.000000		0.000000		-0.000000		21.521991		0.449919		3.921336		0.374600		1.310017		1.918188		-0.088084		-0.001894		-0.016257		-31.469435		147.171264		399.133091		-0.265749		1.309951		1.927509		-1.673301		7.825428		21.222803		
0.205712		0.000000		-0.000000		-0.000000		0.144966		0.000000		0.187903		-0.000000		-0.000000		0.000000		-0.000000		-0.000000		-0.000000		-0.143518		0.000000		0.238076		-0.000000		0.000000		-0.000000		21.862784		-0.309454		-0.255897		0.374579		1.310095		1.918092		-0.064860		0.000919		0.000776		-30.320819		140.926729		389.419060		-0.265775		1.309940		1.927278		-1.611007		7.487727		20.690631		
0.208136		0.000000		-0.000000		-0.000000		0.144966		0.000000		0.187903		-0.000000		-0.000000		0.000000		0.000000		-0.000000		-0.000000		-0.143518		0.000000		0.238076		-0.000000		0.000000		-0.000000		22.041595		-0.200519		-2.483276		0.374561		1.310186		1.917992		-0.083673		0.000758		0.009436		-28.957922		135.293446		378.997315		-0.265798		1.309925		1.927050		-1.535898		7.175822		20.101613		
0.210561		0.000000		-0.000000		-0.000000		0.144966		0.000000		0.187903		-0.000000		-0.000000		0.000000		0.000000		-0.000000		-0.000000		-0.143518		0.000000		0.238076		-0.000000		0.000000		-0.000000		22.075416		0.381532		-3.211685		0.374548		1.310289		1.917889		-0.097623		-0.001688		0.014203		-27.385404		130.248366		367.777501		-0.265818		1.309909		1.926833		-1.448346		6.888511		19.450832		
0.212985		0.000000		-0.000000		-0.000000		0.144966		0.000000		0.187903		-0.000000		-0.000000		0.000000		0.000000		-0.000000		-0.000000		-0.143518		0.000000		0.238076		-0.000000		0.000000		-0.000000		21.995425		1.113074		-2.932989		0.374541		1.310397		1.917781		-0.101932		-0.005158		0.013592		-25.627128		125.687747		355.636968		-0.265836		1.309894		1.926629		-1.349975		6.620924		18.734088		
0.215409		-0.000000		-0.000000		-0.000000		0.144966		0.000000		0.187903		-0.000000		-0.000000		0.000000		0.000000		0.000000		0.000000		-0.143518		0.000000		0.238076		0.000000		-0.000000		0.000000		21.842148		1.770682		-2.108220		0.374541		1.310508		1.917666		-0.102703		-0.008326		0.009912		-23.732153		121.412614		342.419805		-0.265851		1.309884		1.926442		-1.243942		6.363942		17.948220		
0.217833		-0.000000		0.000000		0.000000		0.144966		0.000000		0.187903		0.000000		0.000000		-0.000000		0.000000		0.000000		0.000000		-0.143518		0.000000		0.238076		0.000000		-0.000000		0.000000		21.660132		2.238385		-1.114243		0.374543		1.310614		1.917548		-0.103701		-0.010717		0.005334		-21.778119		117.130905		327.958696		-0.265863		1.309878		1.926273		-1.134995		6.104412		17.091953		
0.220258		-0.000000		0.000000		0.000000		0.144966		0.000000		0.187903		0.000000		0.000000		-0.000000		0.000000		0.000000		0.000000		-0.143518		0.000000		0.238076		0.000000		-0.000000		0.000000		21.491249		2.488926		-0.209698		0.374538		1.310713		1.917433		-0.104588		-0.012113		0.001020		-19.866030		112.488692		312.073882		-0.265872		1.309876		1.926120		-1.029009		5.826609		16.164589		
0.222682		-0.000000		0.000000		0.000000		0.144966		0.000000		0.187903		0.000000		0.000000		-0.000000		0.000000		0.000000		0.000000		-0.143518		0.000000		0.238076		0.000000		-0.000000		0.000000		21.370829		2.555059		0.459457		0.374516		1.310802		1.917328		-0.103632		-0.012390		-0.002228		-18.112202		107.112767		294.596214		-0.265875		1.309875		1.925980		-0.932424		5.514196		15.165905		
0.225106		-0.000000		0.000000		0.000000		0.144966		0.000000		0.187903		0.000000		0.000000		-0.000000		-0.000000		0.000000		0.000000		-0.143518		0.000000		0.238076		0.000000		-0.000000		0.000000		21.324786		2.498960		0.841211		0.374465		1.310882		1.917243		-0.100157		-0.011737		-0.003951		-16.634312		100.671118		275.389458		-0.265869		1.309874		1.925851		-0.851426		5.152839		14.095778		
0.227530		-0.000000		0.000000		0.000000		0.144966		0.000000		0.187903		0.000000		0.000000		-0.000000		-0.000000		0.000000		0.000000		-0.143518		0.000000		0.238076		0.000000		-0.000000		0.000000		21.367536		2.385865		0.950548		0.374376		1.310956		1.917187		-0.095057		-0.010614		-0.004229		-15.533526		92.938591		254.376611		-0.265853		1.309870		1.925730		-0.791054		4.732953		12.954279		
